<?xml version="1.0" encoding="UTF-8"?>
<svg width="211px" height="88px" viewBox="0 0 211 88" version="1.1" xmlns="http://www.w3.org/2000/svg" xmlns:xlink="http://www.w3.org/1999/xlink">
    <!-- Generator: Sketch 49.1 (51147) - http://www.bohemiancoding.com/sketch -->
    <title>logo/primary/landing-page</title>
    <desc>Created with Sketch.</desc>
    <defs>
        <linearGradient x1="0.000516641007%" y1="49.9992635%" x2="99.9997933%" y2="49.9992635%" id="linearGradient-1">
            <stop stop-color="#CE433A" offset="0%"></stop>
            <stop stop-color="#DF9232" offset="23.31%"></stop>
            <stop stop-color="#E09633" offset="28.66%"></stop>
            <stop stop-color="#E4A236" offset="35.69%"></stop>
            <stop stop-color="#EBB63A" offset="43.63%"></stop>
            <stop stop-color="#F3CF3F" offset="51.53%"></stop>
            <stop stop-color="#AFCB4A" offset="75.46%"></stop>
            <stop stop-color="#6DADB3" offset="100%"></stop>
        </linearGradient>
        <linearGradient x1="20.3165384%" y1="160.20735%" x2="81.7432983%" y2="-31.0112119%" id="linearGradient-2">
            <stop stop-color="#818488" offset="0%"></stop>
            <stop stop-color="#C3C4C5" offset="15.93%"></stop>
            <stop stop-color="#CBCCCD" offset="17.35%"></stop>
            <stop stop-color="#E4E4E4" offset="22.31%"></stop>
            <stop stop-color="#F6F6F5" offset="26.76%"></stop>
            <stop stop-color="#FFFFFF" offset="30.22%"></stop>
            <stop stop-color="#F7F6F6" offset="35.03%"></stop>
            <stop stop-color="#E6E6E6" offset="40.2%"></stop>
            <stop stop-color="#CFD0D0" offset="45.54%"></stop>
            <stop stop-color="#B3B5B6" offset="50.97%"></stop>
            <stop stop-color="#A1A5A7" offset="53.99%"></stop>
            <stop stop-color="#D7D7D7" offset="74.29%"></stop>
            <stop stop-color="#E6E6E7" offset="78.53%"></stop>
            <stop stop-color="#C7C8C9" offset="82.76%"></stop>
            <stop stop-color="#9FA0A3" offset="90.6%"></stop>
            <stop stop-color="#898B8F" offset="96.6%"></stop>
            <stop stop-color="#818488" offset="100%"></stop>
        </linearGradient>
    </defs>
    <g id="00---Onboarding" stroke="none" stroke-width="1" fill="none" fill-rule="evenodd">
        <g id="0-0-0" transform="translate(-75.000000, -252.000000)">
            <g id="logo/primary/landing-page" transform="translate(74.000000, 252.000000)">
                <g id="mimiklogo_CS" transform="translate(0.990698, 0.000000)">
                    <path d="M88.4319172,10.5796308 C86.055724,10.5796308 84.1290623,12.4763692 84.1290623,14.8171692 C84.1290623,17.1579692 86.055724,19.0547077 88.4319172,19.0547077 C90.8081104,19.0547077 92.7347721,17.1579692 92.7347721,14.8171692 C92.7347721,12.4763692 90.8081104,10.5796308 88.4319172,10.5796308 Z M102.203115,3.40830769 C100.248272,3.40830769 98.6632264,4.96929231 98.6632264,6.89446154 C98.6632264,8.81963077 100.248959,10.3806154 102.203115,10.3806154 C104.158646,10.3806154 105.743004,8.81963077 105.743004,6.89446154 C105.743691,4.96929231 104.158646,3.40830769 102.203115,3.40830769 Z M146.347245,10.5796308 C143.971052,10.5796308 142.045077,12.4763692 142.045077,14.8171692 C142.045077,17.1579692 143.971052,19.0547077 146.347245,19.0547077 C148.723438,19.0547077 150.650787,17.1579692 150.650787,14.8171692 C150.650787,12.4763692 148.723438,10.5796308 146.347245,10.5796308 Z M117.422574,0.673538462 C115.467043,0.673538462 113.883373,2.23452308 113.883373,4.15969231 C113.883373,6.08486154 115.467731,7.64516923 117.422574,7.64516923 C119.377418,7.64516923 120.961775,6.08418462 120.961775,4.15969231 C120.961775,2.23384615 119.377418,0.673538462 117.422574,0.673538462 Z M132.408332,3.40830769 C130.453489,3.40830769 128.869131,4.96929231 128.869131,6.89446154 C128.869131,8.81963077 130.454176,10.3806154 132.408332,10.3806154 C134.362488,10.3806154 135.947533,8.81963077 135.947533,6.89446154 C135.947533,4.96929231 134.363175,3.40830769 132.408332,3.40830769 Z" id="Shape" fill="url(#linearGradient-1)" fill-rule="nonzero"></path>
                    <path d="M73.3678008,31.0078154 C76.2313301,31.0078154 78.5532221,28.7211692 78.5532221,25.9011077 C78.5532221,23.0803692 76.2313301,20.7937231 73.3678008,20.7937231 C70.5035841,20.7937231 68.1823794,23.0803692 68.1823794,25.9011077 C68.1823794,28.7211692 70.5035841,31.0078154 73.3678008,31.0078154 Z M53.5203669,41.2686154 C51.9023285,39.7468923 50.0650231,38.5162462 48.0063889,37.5753231 C43.888433,35.8369846 38.8136761,35.8369846 34.5493132,37.6477538 C32.6370859,38.5162462 30.9455003,39.6027077 29.4752437,41.0506462 C28.004987,39.6027077 26.3134014,38.5155692 24.4004868,37.6477538 C20.1368112,35.8369846 15.1356015,35.8369846 10.9447858,37.5753231 C8.88546418,38.5162462 7.04747151,39.7468923 5.43012045,41.2686154 C3.88494187,42.7896615 2.63532681,44.5997538 1.7527604,46.6271385 C0.870881342,48.5841231 0.355363579,50.8288 0.355363579,53.1452308 L0.355363579,84.2126154 C0.355363579,85.0100308 0.723099583,85.6632615 1.31216455,86.2406769 C1.8998548,86.8925538 2.63532681,87.1836308 3.37079882,87.1836308 L7.93003792,87.1836308 C8.81260433,87.1836308 9.54807634,86.8925538 10.136454,86.2406769 C10.6512844,85.6625846 10.9454732,84.9369231 10.9454732,84.2126154 L10.9454732,53.1452308 C10.9454732,51.3351385 11.607398,49.8865231 12.857013,48.5841231 C14.1801753,47.3521231 15.7246665,46.7002462 17.6368937,46.7002462 C19.4748864,46.7002462 20.9458304,47.3521231 22.2689927,48.5841231 C23.5921549,49.8865231 24.1805326,51.3351385 24.1805326,53.1452308 L24.1805326,84.2126154 C24.1805326,84.9369231 24.4754087,85.6632615 24.9902391,86.2406769 C25.5779294,86.8925538 26.3140887,87.1836308 27.1959678,87.1836308 L31.7545195,87.1836308 C32.6370859,87.1836308 33.372558,86.8925538 33.9616229,86.2406769 C34.4764533,85.6625846 34.7706421,84.9369231 34.7706421,84.2126154 L34.7706421,53.1452308 C34.7706421,51.3351385 35.4318796,49.8865231 36.682182,48.5841231 C38.0060316,47.3521231 39.4756009,46.7002462 41.3142809,46.7002462 C43.2258208,46.7002462 44.770312,47.3521231 46.0941617,48.5841231 C47.3437767,49.8865231 48.0063889,51.3351385 48.0063889,53.1452308 L48.0063889,84.2126154 C48.0063889,84.9369231 48.3005777,85.6632615 48.8154081,86.2406769 C49.4030983,86.8925538 50.1385704,87.1836308 51.0211368,87.1836308 L55.5796885,87.1836308 C56.4622549,87.1836308 57.1977269,86.8925538 57.7867919,86.2406769 C58.3016223,85.6625846 58.5958111,84.9369231 58.5958111,84.2126154 L58.5958111,53.1452308 C58.5958111,50.8288 58.1545279,48.5841231 57.2719615,46.6271385 C56.3158479,44.5997538 55.0648581,42.8620923 53.5203669,41.2686154 Z M161.396927,31.0078154 C164.261143,31.0078154 166.583035,28.7211692 166.583035,25.9011077 C166.583035,23.0803692 164.261143,20.7937231 161.396927,20.7937231 C158.53271,20.7937231 156.212193,23.0803692 156.212193,25.9011077 C156.212193,28.7211692 158.53271,31.0078154 161.396927,31.0078154 Z M210.663241,50.0313846 L210.663241,39.3854154 C210.663241,37.5028923 209.56072,36.4171077 207.648493,36.4171077 L203.089254,36.4171077 C201.177714,36.4171077 200.074506,37.5028923 200.074506,39.3854154 L200.074506,50.0313846 C200.074506,51.9139077 199.412581,53.4342769 198.162966,54.7380308 C196.838429,55.9686769 195.294625,56.6219077 193.382398,56.6219077 L186.838072,56.6219077 L186.838072,39.3854154 C186.838072,37.5028923 185.734864,36.4171077 183.822637,36.4171077 L179.263398,36.4171077 C177.351171,36.4171077 176.24865,37.5028923 176.24865,39.3854154 L176.24865,84.3574769 C176.24865,85.0817846 176.542839,85.8067692 177.057669,86.3855385 C177.646047,87.0374154 178.381519,87.3271385 179.263398,87.3271385 L183.822637,87.3271385 C184.704516,87.3271385 185.440675,87.0374154 186.029053,86.3855385 C186.543196,85.8067692 186.838072,85.0817846 186.838072,84.3574769 L186.838072,67.0499077 L193.382398,67.0499077 C195.294625,67.0499077 196.838429,67.6286769 198.162966,68.9324308 C199.412581,70.1630769 200.074506,71.6834462 200.074506,73.4948923 L200.074506,84.3574769 C200.074506,85.0817846 200.368695,85.8067692 200.882838,86.3855385 C201.471216,87.0374154 202.207375,87.3271385 203.089254,87.3271385 L207.648493,87.3271385 C208.53106,87.3271385 209.266532,87.0374154 209.781362,86.3855385 C210.36974,85.8067692 210.663241,85.0817846 210.663241,84.3574769 L210.663241,73.4948923 C210.663241,71.0329231 210.149098,68.7868923 209.192297,66.6870769 C208.383965,64.8769846 207.20721,63.2110769 205.809813,61.8348923 C207.20721,60.3856 208.383965,58.7210462 209.192297,56.8385231 C210.149098,54.7380308 210.663241,52.4202462 210.663241,50.0313846 Z M163.676203,36.344 L159.116964,36.344 C157.205424,36.344 156.102216,37.4297846 156.102216,39.3136615 L156.102216,84.2850462 C156.102216,86.1675692 157.204736,87.2560615 159.116964,87.2560615 L163.676203,87.2560615 C165.587743,87.2560615 166.690951,86.1682462 166.690951,84.2850462 L166.690951,39.3136615 C166.690951,38.4444923 166.323902,37.7195077 165.734837,37.1407385 C165.146459,36.6337231 164.411675,36.344 163.676203,36.344 Z M75.7281848,36.344 L71.169633,36.344 C69.2580932,36.344 68.1548852,37.4297846 68.1548852,39.3136615 L68.1548852,84.2850462 C68.1548852,86.1675692 69.2574058,87.2560615 71.169633,87.2560615 L75.7281848,87.2560615 C77.6410994,87.2560615 78.74362,86.1682462 78.74362,84.2850462 L78.74362,39.3136615 C78.74362,38.4444923 78.3772587,37.7195077 77.7875064,37.1407385 C77.1991288,36.6337231 76.4636568,36.344 75.7281848,36.344 Z M141.467697,41.2686154 C139.849659,39.7468923 138.012354,38.5162462 135.953032,37.5753231 C131.835076,35.8369846 126.761694,35.8369846 122.496644,37.6477538 C120.584416,38.5162462 118.893518,39.6027077 117.422574,41.0506462 C115.95163,39.6027077 114.260045,38.5155692 112.348505,37.6477538 C108.083454,35.8369846 103.082932,35.8369846 98.891429,37.5753231 C96.8321073,38.5162462 94.994802,39.7468923 93.3767636,41.2686154 C91.8329597,42.7896615 90.5826573,44.5997538 89.6994035,46.6271385 C88.8175245,48.5841231 88.3020067,50.8288 88.3020067,53.1452308 L88.3020067,84.2126154 C88.3020067,85.0100308 88.6697427,85.6632615 89.2588077,86.2406769 C89.8471853,86.8925538 90.5826573,87.1836308 91.3181293,87.1836308 L95.8773684,87.1836308 C96.7599348,87.1836308 97.4947195,86.8925538 98.0830971,86.2406769 C98.5979275,85.6625846 98.8921163,84.9369231 98.8921163,84.2126154 L98.8921163,53.1452308 C98.8921163,51.3351385 99.5540411,49.8865231 100.804344,48.5841231 C102.128193,47.3521231 103.671997,46.7002462 105.584224,46.7002462 C107.422217,46.7002462 108.893161,47.3521231 110.215636,48.5841231 C111.540173,49.8865231 112.12855,51.3351385 112.12855,53.1452308 L112.12855,84.2126154 C112.12855,84.9369231 112.422739,85.6632615 112.936882,86.2406769 C113.52526,86.8925538 114.260732,87.1836308 115.142611,87.1836308 L119.702537,87.1836308 C120.584416,87.1836308 121.320576,86.8925538 121.908266,86.2406769 C122.423096,85.6625846 122.717973,84.9369231 122.717973,84.2126154 L122.717973,53.1452308 C122.717973,51.3351385 123.379897,49.8865231 124.629513,48.5841231 C125.952675,47.3521231 127.422931,46.7002462 129.262299,46.7002462 C131.174526,46.7002462 132.717643,47.3521231 134.04218,48.5841231 C135.291107,49.8865231 135.953032,51.3351385 135.953032,53.1452308 L135.953032,84.2126154 C135.953032,84.9369231 136.247908,85.6632615 136.762051,86.2406769 C137.349741,86.8925538 138.085901,87.1836308 138.968467,87.1836308 L143.527019,87.1836308 C144.410273,87.1836308 145.145057,86.8925538 145.732748,86.2406769 C146.248265,85.6625846 146.543142,84.9369231 146.543142,84.2126154 L146.543142,53.1452308 C146.543142,50.8288 146.101171,48.5841231 145.218605,46.6271385 C144.263178,44.5997538 143.012876,42.8620923 141.467697,41.2686154 Z" id="Shape" fill="url(#linearGradient-2)" fill-rule="nonzero"></path>
                </g>
            </g>
        </g>
    </g>
</svg>