<svg version="1" xmlns="http://www.w3.org/2000/svg" width="1365.333" height="1365.333" viewBox="0 0 1024.000000 1024.000000"><path d="M556.6 320.2c-13.6 8-7.9 28.8 7.9 28.8 11.9 0 19.1-11.6 13.9-22.5-3.7-7.8-14.1-10.8-21.8-6.3zM491.4 331.4c-10.8 4.8-12.9 18.6-4.1 26.1 4 3.5 5.3 3.9 11.2 3.7 10.6-.2 17.6-12 13.1-22-3.2-7.1-13.2-11-20.2-7.8zM623.4 332c-7.9 3.9-10.9 14.9-6.1 22.1 8.6 13 28.7 7.3 28.7-8.1 0-11.9-11.9-19.3-22.6-14zM430 363.4c-9.9 4.4-14.4 13.7-11.4 23.5 4.5 15.2 25.2 18.1 34 4.7 6.9-10.3 1.7-24.8-10.1-28.1-5.8-1.6-9-1.6-12.5-.1zM684.9 363.7c-21.4 9-11.1 41.2 11.6 36.1 8.3-1.9 14.4-9.7 14.5-18.5 0-7.3-3.8-13.5-10.4-17-3.9-2-11.6-2.3-15.7-.6zM363.5 408.7c-4.1 1.1-10.6 6.5-13.2 11.1-3.9 6.5-3.9 15.9 0 22.4 7.5 12.9 23.6 15.6 34.8 5.9 10-8.4 10.7-23.5 1.6-32.9-1.7-1.8-4.5-4-6.2-4.8-3.1-1.7-13.6-2.7-17-1.7zM749 410c-7.9 3.7-13 11.1-13.5 19.5-1.1 21.8 25 32.6 40.1 16.6 9.9-10.4 6.4-28.9-6.9-35.7-5.1-2.7-14.4-2.9-19.7-.4zM108.9 479c-12 2.5-24.2 8.3-32.4 15.6-1.6 1.4-4.1 3.6-5.5 4.8-9 7.6-19.5 27.4-21.8 40.9-.3 2.3-.7 38.4-.7 80.2v76.1l2.5 3.1c1.4 1.7 3.8 3.7 5.4 4.4 3.4 1.5 24.5 2 29 .7 3.5-.9 7.5-4.4 8.8-7.8.7-1.6 1-29 1-75.4-.1-80.9-.3-78.1 6.5-86.4 12.5-15.4 35.8-14.2 47 2.3 4.4 6.5 4.4 7 4.6 84.8.2 69.1.3 74.5 2 77 3.5 5.3 5.8 6 20 6.3 11.2.1 13.8-.1 17.4-1.8 8-3.7 7.6.6 7.7-83.8l.1-74.5 2.7-5c3.1-6 7.7-10.5 13.8-13.6 6.4-3.3 17.6-3.3 24.4 0 6.4 3.2 11.3 8.2 14.4 14.9l2.5 5.5v73.6c0 69.9.1 73.8 1.9 77.3 3.2 6.5 5.2 7.2 21.2 7.2 13.6.1 14.4 0 17.9-2.4 2.2-1.5 4.2-3.9 4.8-5.8.8-2.4 1.1-25.8 1.1-78-.1-41.1-.3-76.1-.5-77.7-2.6-17.3-13.8-36-28.7-47.8-26.7-21.1-64.3-21.8-91.6-1.6-2.9 2.1-5.5 4.3-5.9 4.9-1 1.6-2.2 1.2-5.7-2-4.7-4.4-15.6-10.7-22.3-13.1-13.3-4.6-28.2-5.7-41.6-2.9zM353.6 479.2c-6.8 3.5-6.4-3.1-6.4 112.8 0 101.6.1 104.9 1.9 108 3 4.9 6.6 5.8 21.9 5.8 11.8 0 14-.3 17.3-2.1 2.7-1.5 4-3.1 4.8-5.6.6-2.4.9-38.6.7-108.3l-.3-104.6-2.5-2.7c-3.8-4.2-6.5-4.8-20.8-4.9-10.7-.1-13.9.2-16.6 1.6zM496.7 479c-10.2 2.1-19.4 6.2-28.4 12.6-15.8 11.3-24.9 25-31 46.5-.4 1.3-.9 37-1 79.4-.3 73.9-.3 77.1 1.5 80.5 3.4 6.3 6.8 7.4 22.2 7.5 15.1 0 17.4-.7 21-6.8 1.9-3 2-5.9 2-76.3 0-78.4 0-78.4 5.1-85.6 3.1-4.4 5.5-6.3 11.4-9.5 6.7-3.5 17.7-3.7 24.5-.5 5.6 2.7 11.4 8.3 14.3 13.6 2.2 4.1 2.2 4.4 2.7 80.1.5 70.5.6 76.3 2.3 78.8 3.5 5.3 5.7 6 20.4 6.2 15.3.2 18.2-.7 22-6.4l2.3-3.4v-73.6c0-69.9.1-73.9 1.9-78.8 2.5-6.9 5.4-10.3 12.5-14.8 5.1-3.2 6.9-3.7 12.5-4 11.2-.4 20.1 3.9 26 12.5 1.7 2.5 3.6 6.1 4.1 8 .6 2.2 1 31.2 1 76.5 0 67.5.1 73.3 1.8 76.4 3.4 6.8 5.5 7.5 21.5 7.5 15.9.1 18-.6 21.8-6.7 1.9-3.1 1.9-5.4 1.9-79.2-.1-85.2 0-83.4-7.2-98.4-6.6-13.4-16-23.8-29.3-32.4-18-11.6-40.6-14.4-62.5-7.9-8.7 2.6-23.6 11.2-26.8 15.4-1.7 2.3-2.8 2.3-5.5-.3-2.7-2.6-14-10-18.2-11.8-1.6-.7-3.7-1.7-4.5-2.1-.8-.4-4.7-1.5-8.5-2.5-9.9-2.4-23.1-2.6-33.8-.5zM742.1 478.7c-1.7.7-4 2.8-5.1 4.6-2 3.1-2 5.4-2 108.9v105.6l2.5 3.1c3.7 4.3 7.3 5.1 22.5 4.8 11-.2 14.1-.5 16.3-2 6.1-3.9 5.8 2.3 5.5-112.6-.3-104.7-.3-105-2.4-107.8-3.6-4.8-6.6-5.7-21-5.8-8.6 0-14.3.4-16.3 1.2zM830.3 479.4c-1.7.8-3.9 2.9-4.9 4.8-1.6 3.1-1.7 10.8-1.7 107.3 0 112.9-.3 106.9 5.3 112 2 1.8 3.9 2 16.9 2.3 16.7.4 19.9-.5 23.1-6.8 1.6-3.2 1.8-6.7 1.9-35.5 0-17.6 0-35.7.1-40.2V615l17.8.3c17.1.2 17.9.3 23.4 3 3.2 1.5 7.4 4.8 9.5 7.1 6.8 7.8 7.2 9.9 7.2 42 0 30.3.1 31.6 5.1 36.1 1.9 1.8 3.9 2 15.9 2.3 16.6.4 19.7-.3 23.2-5.8l2.6-4-.2-32.3c-.3-36.2-.5-38.1-7.6-52.5-2.2-4.6-6-10.7-8.5-13.7-5-6.2-4.8-5.9-3.1-7.7 7.1-7.5 14.9-22.2 17.2-32.7.3-1.1.8-3.1 1.1-4.4.4-1.2.8-16.2.9-33.2.3-34.9 0-37.1-6-39.9-4.1-2-30.3-2.3-33.8-.4-2.9 1.5-5.6 4.7-6.2 7.2-.3 1.2-.6 15.1-.7 31.1l-.3 29-2.8 5.6c-3.1 6.4-8.7 11.5-15.6 14.3-3.8 1.5-7.5 1.9-20.9 2-8.9.1-16.7-.1-17.3-.5-.7-.4-1-13.4-1.1-40 0-41.7-.1-43.2-4.8-47.4-2-1.8-3.8-2-17.4-2.2-11.3-.2-15.9.1-18.3 1.1z"/></svg>